<svg width="20" height="15" viewBox="0 0 20 15" fill="none" xmlns="http://www.w3.org/2000/svg">
<g id="logos:google-gmail" clip-path="url(#clip0_102_109)">
<path id="Vector" d="M4.54547 14.9261V7.23881L2.14898 5.05775L0 3.84741V13.5695C0 14.3201 0.611328 14.9261 1.36367 14.9261H4.54547Z" fill="#2FF3E0"/>
<path id="Vector_2" d="M15.4546 14.9263H18.6364C19.391 14.9263 20.0001 14.318 20.0001 13.5697V3.84766L17.566 5.23395L15.4546 7.23898V14.9263Z" fill="#34A853"/>
<path id="Vector_3" d="M4.54545 7.2388L4.21936 4.23514L4.54545 1.36035L9.99999 5.43009L15.4545 1.36035L15.8193 4.07994L15.4545 7.2388L9.99999 11.3085L4.54545 7.2388Z" fill="#EA4335"/>
<path id="Vector_4" d="M15.4546 1.36039V7.23884L20.0001 3.84744V2.03865C20.0001 0.361064 18.0751 -0.595283 16.7274 0.410805L15.4546 1.36039Z" fill="#F8D210"/>
<path id="Vector_5" d="M0 3.84747L2.09055 5.40732L4.54547 7.23887V1.36043L3.27266 0.410841C1.92266 -0.595325 0 0.3611 0 2.03861V3.84739V3.84747Z" fill="#C5221F"/>
</g>
<defs>
<clipPath id="clip0_102_109">
<rect width="20" height="15" fill="white"/>
</clipPath>
</defs>
</svg>
