<svg width={width} height={height} viewBox="0 0 418 91" fill="none" xmlns="http://www.w3.org/2000/svg">
<g clip-path="url(#clip0_34_290)">
<path d="M76.6928 0L59.2367 37.0569L39.9074 78.023L33.7991 90.9183H0L19.0307 50.6037L22.3156 43.5452L30.3242 26.6049L38.36 9.61035L42.8665 0H76.6928Z" fill={fill}/>
<path d="M118.609 0.00012207L101.153 37.057L90.8097 58.9653H56.9834L60.947 50.6038L64.2319 43.5453L72.2405 26.6051L80.2763 9.61048L84.7828 0.00012207H118.609Z" fill={fill}/>
<path d="M101.859 90.9184L95.2619 71.8606L90.7825 58.9653H56.9834L68.0326 90.9184H101.859Z" fill={fill}/>
</g>
<path d="M135.71 74.4591V15.7722H148.118V41.6483H148.891L170.011 15.7722H184.883L163.105 42.0495L185.141 74.4591H170.297L154.221 50.331L148.118 57.7815V74.4591H135.71ZM195.38 74.4591V15.7722H218.533C222.965 15.7722 226.748 16.565 229.881 18.1507C233.033 19.7172 235.431 21.9428 237.074 24.8274C238.736 27.693 239.567 31.0648 239.567 34.9429C239.567 38.8401 238.726 42.1928 237.045 45.001C235.364 47.7902 232.928 49.9298 229.738 51.4199C226.567 52.91 222.727 53.6551 218.218 53.6551H202.715V43.6829H216.212C218.581 43.6829 220.549 43.3581 222.115 42.7086C223.682 42.0591 224.847 41.0848 225.611 39.7857C226.395 38.4867 226.786 36.8724 226.786 34.9429C226.786 32.9943 226.395 31.3514 225.611 30.0141C224.847 28.6769 223.672 27.6644 222.087 26.9766C220.52 26.2698 218.543 25.9164 216.155 25.9164H207.788V74.4591H195.38ZM227.073 47.752L241.659 74.4591H227.961L213.691 47.752H227.073ZM252.37 74.4591V15.7722H291.915V26.0023H264.778V39.9863H289.88V50.2164H264.778V64.229H292.03V74.4591H252.37ZM302.376 15.7722H316.274L329.656 41.0466H330.229L343.611 15.7722H357.509L336.103 53.7124V74.4591H323.781V53.7124L302.376 15.7722ZM372.447 74.4591H359.151L379.411 15.7722H395.401L415.632 74.4591H402.335L387.635 29.1831H387.176L372.447 74.4591ZM371.616 51.3913H403.023V61.0769H371.616V51.3913Z" fill={fill}/>
<defs>
<clipPath id="clip0_34_290">
<rect width="118.609" height="90.9183" fill="white"/>
</clipPath>
</defs>
</svg>
